<?xml version="1.0" encoding="UTF-8" standalone="no"?>
<svg
   version="1.1"
   width="106.02198"
   height="32"
   style="fill:#221f1f"
   id="svg1936"
   sodipodi:docname="amazon.svg"
   inkscape:version="1.4 (e7c3feb, 2024-10-09)"
   xmlns:inkscape="http://www.inkscape.org/namespaces/inkscape"
   xmlns:sodipodi="http://sodipodi.sourceforge.net/DTD/sodipodi-0.dtd"
   xmlns:xlink="http://www.w3.org/1999/xlink"
   xmlns="http://www.w3.org/2000/svg"
   xmlns:svg="http://www.w3.org/2000/svg">
  <defs
     id="defs1" />
  <sodipodi:namedview
     id="namedview1"
     pagecolor="#ffffff"
     bordercolor="#000000"
     borderopacity="0.25"
     inkscape:showpageshadow="2"
     inkscape:pageopacity="0.0"
     inkscape:pagecheckerboard="0"
     inkscape:deskcolor="#d1d1d1"
     inkscape:zoom="5.7190175"
     inkscape:cx="52.806273"
     inkscape:cy="8.8301881"
     inkscape:window-width="1680"
     inkscape:window-height="943"
     inkscape:window-x="0"
     inkscape:window-y="32"
     inkscape:window-maximized="1"
     inkscape:current-layer="svg1936" />
  <path
     d="m 66.240608,25.271037 c -6.170734,4.54832 -15.114836,6.975013 -22.815541,6.975013 -10.797631,0 -20.51827,-3.993644 -27.872308,-10.635851 -0.577784,-0.52232 -0.06009,-1.234148 0.633251,-0.82739 7.936442,4.617653 17.749532,7.395641 27.886177,7.395641 6.836339,0 14.356778,-1.414418 21.271699,-4.349561 1.044635,-0.443741 1.918244,0.684096 0.896722,1.442148"
     id="path8"
     style="fill:#ff9900;stroke-width:0.176309" />
  <path
     d="m 68.805972,22.335895 c -0.78579,-1.007655 -5.213926,-0.476093 -7.201503,-0.240357 -0.605521,0.07396 -0.697963,-0.452983 -0.152538,-0.832013 3.526796,-2.48216 9.313884,-1.765707 9.988736,-0.933699 0.674849,0.836634 -0.175646,6.637589 -3.489818,9.406327 -0.50845,0.425249 -0.993789,0.198761 -0.767295,-0.365159 0.744184,-1.858154 2.412826,-6.022821 1.622418,-7.035099"
     id="path10"
     style="fill:#ff9900;stroke-width:0.176309" />
  <path
     d="M 61.743138,3.7404879 V 1.3276617 c 0,-0.36515948 0.277336,-0.61013948 0.610139,-0.61013948 h 10.80225 c 0.346674,0 0.62401,0.24960283 0.62401,0.61013948 V 3.393818 c -0.0046,0.3466699 -0.295826,0.7996526 -0.813523,1.5161048 l -5.597571,7.9919122 c 2.080024,-0.05084 4.275604,0.258846 6.161491,1.32197 0.425249,0.240357 0.540806,0.59165 0.573162,0.938324 v 2.574606 c 0,0.351292 -0.388271,0.762671 -0.795031,0.550049 -3.323416,-1.742599 -7.737686,-1.932112 -11.412393,0.01849 -0.374404,0.20338 -0.767297,-0.20338 -0.767297,-0.554673 v -2.445182 c 0,-0.392893 0.0046,-1.063126 0.397513,-1.659399 l 6.48505,-9.3000136 h -5.643794 c -0.34667,0 -0.624006,-0.2449783 -0.624006,-0.6055185"
     id="path12"
     style="stroke-width:0.176309" />
  <path
     d="M 22.338255,18.795232 H 19.051819 C 18.737507,18.772123 18.487903,18.536387 18.46479,18.235937 V 1.3692654 c 0,-0.337426 0.28196,-0.60552017 0.633252,-0.60552017 h 3.064566 c 0.31894,0.0138579 0.573162,0.25884677 0.596277,0.56391647 v 2.2048271 h 0.06009 c 0.799653,-2.1308706 2.301889,-3.12465915 4.326447,-3.12465915 2.056911,0 3.341902,0.99378855 4.266357,3.12465915 0.795032,-2.1308706 2.602339,-3.12465915 4.539074,-3.12465915 1.377438,0 2.884299,0.5685393 3.804131,1.84428695 1.040011,1.4190377 0.827386,3.4805712 0.827386,5.2878825 l -0.0046,10.6450949 c 0,0.337426 -0.281959,0.610138 -0.633251,0.610138 h -3.281816 c -0.328179,-0.02311 -0.591649,-0.286578 -0.591649,-0.610138 V 9.2456171 c 0,-0.7118294 0.06471,-2.4867827 -0.09245,-3.1616366 -0.24498,-1.132454 -0.979921,-1.451394 -1.932111,-1.451394 -0.795032,0 -1.627041,0.531562 -1.964467,1.3820622 -0.337426,0.8504984 -0.30507,2.2741554 -0.30507,3.2309684 v 8.9394769 c 0,0.337426 -0.281959,0.610138 -0.633251,0.610138 H 27.861892 C 27.529089,18.772122 27.27024,18.508654 27.27024,18.185094 l -0.0046,-8.9394769 c 0,-1.8812643 0.309689,-4.6500079 -2.024557,-4.6500079 -2.361984,0 -2.269538,2.6994064 -2.269538,4.6500079 v 8.9394769 c 0,0.337426 -0.281959,0.610138 -0.633251,0.610138"
     id="path14"
     style="stroke-width:0.176309" />
  <path
     d="m 83.079551,0.40782965 c 4.876498,0 7.515815,4.18777955 7.515815,9.51263945 0,5.1445889 -2.916656,9.2260559 -7.515815,9.2260559 -4.788677,0 -7.395641,-4.18778 -7.395641,-9.4063251 0,-5.2509035 2.63932,-9.33237025 7.395641,-9.33237025 m 0.02773,3.44359565 c -2.422069,0 -2.574606,3.3003002 -2.574606,5.3572144 0,2.0615333 -0.03236,6.4619363 2.546874,6.4619363 2.546872,0 2.667052,-3.549903 2.667052,-5.7131313 0,-1.423657 -0.06009,-3.1246539 -0.489964,-4.4743597 -0.369782,-1.1740542 -1.10472,-1.6316597 -2.149356,-1.6316597"
     id="path16"
     style="stroke-width:0.176309" />
  <path
     d="m 96.918637,18.795232 h -3.272568 c -0.328184,-0.02311 -0.591654,-0.286578 -0.591654,-0.610138 l -0.0046,-16.871299 c 0.02773,-0.3096926 0.300449,-0.55004977 0.633252,-0.55004977 h 3.04608 c 0.286578,0.0138579 0.522314,0.20800265 0.587029,0.47147217 v 2.579227 h 0.06009 c 0.919835,-2.3065135 2.209446,-3.40661475 4.478984,-3.40661475 1.4745,0 2.91203,0.53156195 3.83648,1.98757705 0.85975,1.3497041 0.85975,3.619242 0.85975,5.2509017 V 18.263674 c -0.037,0.295822 -0.3097,0.531558 -0.63325,0.531558 h -3.29568 c -0.30046,-0.02311 -0.55006,-0.244978 -0.58241,-0.531558 V 9.102327 c 0,-1.844287 0.21262,-4.5436969 -2.056912,-4.5436969 -0.799651,0 -1.534594,0.5361865 -1.899754,1.3497041 C 97.621249,6.9391036 97.56116,7.9652484 97.56116,9.102327 v 9.082767 c -0.0046,0.337426 -0.291203,0.610138 -0.642496,0.610138"
     id="path18"
     style="stroke-width:0.176309" />
  <use
     xlink:href="#path30"
     transform="translate(43.084208)"
     id="use28" />
  <path
     d="m 10.047633,10.738611 v -0.711829 c -2.3758507,0 -4.885744,0.508449 -4.885744,3.309546 0,1.419037 0.73494,2.380473 1.9968209,2.380473 0.9244549,0 1.751841,-0.568539 2.2741608,-1.492996 0.6471153,-1.13708 0.6147623,-2.204825 0.6147623,-3.485194 m 3.314169,8.010398 c -0.217247,0.194136 -0.531564,0.208003 -0.776544,0.07858 -1.090854,-0.905965 -1.284991,-1.326592 -1.885887,-2.190957 -1.8026869,1.839664 -3.078431,2.389712 -5.4173043,2.389712 -2.7641207,0 -4.9180967,-1.705618 -4.9180967,-5.121474 0,-2.667054 1.4467712,-4.4836076 3.5036818,-5.3710833 C 5.651849,7.7479983 8.1432546,7.6093328 10.047633,7.3920862 V 6.966837 c 0,-0.7811665 0.06009,-1.7056214 -0.3975156,-2.3804699 C 9.2479769,3.9808469 8.4806823,3.731244 7.8058285,3.731244 6.5531951,3.731244 5.4346025,4.3737398 5.161889,5.7049543 5.1064204,6.0007819 4.8891738,6.291985 4.5933497,6.3058517 L 1.4039815,5.9638011 C 1.1358891,5.9037149 0.84006329,5.6864648 0.91401975,5.2750858 1.6489615,1.4108656 5.1387766,0.24605 8.2634358,0.24605 c 1.5993036,0 3.6885702,0.42524921 4.9504512,1.6362843 1.599309,1.4929942 1.446771,3.485194 1.446771,5.653042 v 5.1214787 c 0,1.539219 0.637877,2.214067 1.238772,3.046079 0.212624,0.295823 0.258847,0.651738 -0.0092,0.873608 -0.670229,0.559297 -1.862775,1.599308 -2.519141,2.181714 l -0.0092,-0.0093"
     id="path30"
     style="stroke-width:0.176309" />
</svg>
