<svg xmlns:xlink="http://www.w3.org/1999/xlink" width="255" height="32" viewBox="0 0 255 32" fill="none" xmlns="http://www.w3.org/2000/svg">
<g clip-path="url(clip0_4813_30390)" fill="none">
<path d="M40.053 16.0407C40.053 10.2486 44.7161 5.57812 50.499 5.57812C54.7128 5.57812 58.0868 7.93183 59.8032 11.3333L55.5305 13.4435C54.6244 11.5103 52.7901 10.0642 50.5064 10.0642C47.3755 10.0642 44.8193 12.654 44.8193 16.0333C44.8193 19.4126 47.3755 22.0319 50.5064 22.0319C52.7975 22.0319 54.6318 20.5857 55.5305 18.6526L59.8032 20.7628C58.0868 24.1716 54.7128 26.5179 50.499 26.5179C44.7161 26.5179 40.053 21.8474 40.053 16.0259V16.0407Z" fill="#F16022"></path>
<path d="M61.4534 11.156H65.9397V13.5982C66.7501 12.0635 68.0171 11.156 69.5494 11.156H70.8165V15.5904H69.3432C67.2068 15.5904 66.2123 16.7636 66.2123 18.8443V26.23H61.4534V11.156Z" fill="#F16022"></path>
<path d="M72.3784 19.7813V11.156H77.1373V19.7813C77.1373 21.4415 78.1908 22.4671 79.7894 22.4671C81.3879 22.4671 82.4414 21.4415 82.4414 19.7813V11.156H87.2003V19.7813C87.2003 23.7878 84.0694 26.5325 79.7967 26.5325C75.524 26.5325 72.3931 23.7878 72.3931 19.7813H72.3784Z" fill="#F16022"></path>
<path d="M89.4471 11.1562H94.1103V12.9934C95.1637 11.7907 96.637 11.0012 98.3535 11.0012C102.03 11.0012 104.431 13.6869 104.431 17.5458V26.2302H99.6722V17.5458C99.6722 15.9447 98.5008 14.7421 96.9317 14.7421C95.3626 14.7421 94.1913 15.9447 94.1913 17.5458V26.2302H89.4324V11.1562H89.4471Z" fill="#F16022"></path>
<path d="M117.588 20.084L121.47 21.9213C120.233 24.6365 117.559 26.5327 114.303 26.5327C109.905 26.5327 106.383 23.0354 106.383 18.6969C106.383 14.3584 109.905 10.8611 114.303 10.8611C117.581 10.8611 120.262 12.7942 121.5 15.5021L117.588 17.3688C117.08 15.9817 115.813 15.0151 114.31 15.0151C112.321 15.0151 110.818 16.6457 110.818 18.6969C110.818 20.7481 112.321 22.3787 114.31 22.3787C115.783 22.3787 117.05 21.4417 117.588 20.084Z" fill="#F16022"></path>
<path d="M123.01 5.88062H127.769V12.9639C128.822 11.7612 130.266 11.0012 131.924 11.0012C135.6 11.0012 138.001 13.6869 138.001 17.5458V26.2302H133.242V17.5458C133.242 15.9447 132.071 14.742 130.502 14.742C128.933 14.742 127.762 15.9447 127.762 17.5458V26.2302H123.003V5.88062H123.01Z" fill="#F16022"></path>
<path d="M146.643 20.1429L149.832 11.156H154.591L148.514 27.1376C147.247 30.4504 145.265 31.8745 141.891 31.8745H139.725V27.7131H141.891C143.188 27.7131 143.851 27.1671 144.212 26.2669L138.222 11.1634H143.313L146.657 20.1502L146.643 20.1429Z" fill="#F16022"></path>
<path d="M155.792 11.156H160.278V13.5982C161.089 12.0635 162.356 11.156 163.888 11.156H165.155V15.5904H163.682C161.545 15.5904 160.551 16.7636 160.551 18.8443V26.23H155.792V11.156Z" fill="#F16022"></path>
<path d="M165.811 18.6969C165.811 14.3879 169.332 10.8611 173.789 10.8611C178.246 10.8611 181.767 14.3879 181.767 18.6969C181.767 23.0059 178.246 26.5327 173.789 26.5327C169.332 26.5327 165.811 23.0354 165.811 18.6969ZM170.238 18.6969C170.238 20.8071 171.8 22.3787 173.789 22.3787C175.778 22.3787 177.34 20.8145 177.34 18.6969C177.34 16.5793 175.778 15.0151 173.789 15.0151C171.8 15.0151 170.238 16.5793 170.238 18.6969Z" fill="#F16022"></path>
<path d="M189.296 26.2302C185.355 26.2302 183.727 24.4815 183.727 20.7407V5.88062H188.486V20.7407C188.486 21.5818 188.847 22.0688 189.687 22.0688H190.467V26.2302H189.296Z" fill="#F16022"></path>
<path d="M197.237 26.2302C193.296 26.2302 191.668 24.4815 191.668 20.7407V5.88062H196.427V20.7407C196.427 21.5818 196.788 22.0688 197.628 22.0688H198.409V26.2302H197.237Z" fill="#F16022"></path>
<path d="M3.87492 17.9147C3.88228 10.1453 10.1735 3.85889 17.9307 3.86627C25.3564 3.87365 31.4266 9.65092 31.9201 16.9555C31.9349 16.6456 31.9496 16.3283 31.9496 16.0111C31.957 7.17916 24.8112 0.00738407 15.9859 5.6998e-06C7.16785 -0.00737267 0.00737244 7.14965 5.69082e-06 15.9816C-0.00736106 24.8208 7.13838 31.9852 15.9564 31.9926C16.3247 31.9926 16.6857 31.9779 17.0393 31.9557C9.68728 31.5057 3.86018 25.389 3.86755 17.9073L3.87492 17.9147Z" fill="#F16022"></path>
<path d="M25.5479 18.1213C22.5349 18.1213 20.0965 15.6716 20.0965 12.6465C20.0965 10.278 21.6067 8.26375 23.7062 7.50378C22.0413 6.62575 20.1481 6.12402 18.1296 6.12402C11.5069 6.12402 6.13652 11.4881 6.12915 18.1213C6.12915 24.7544 11.4848 30.1332 18.1075 30.1406C24.7302 30.1406 30.1005 24.7766 30.1079 18.1434C30.1079 17.3908 30.0416 16.6603 29.909 15.9446C28.9145 17.2654 27.3307 18.1213 25.5479 18.1213Z" fill="#F16022"></path>
<path d="M211.256 23.8248C211.558 24.0536 211.978 24.1716 212.516 24.1716C213.054 24.1716 213.488 24.0683 213.812 23.8691C214.137 23.6625 214.306 23.4117 214.306 23.1091C214.306 22.8583 214.218 22.6664 214.033 22.5189C213.849 22.3713 213.614 22.268 213.326 22.1942C213.039 22.1204 212.649 22.0467 212.17 21.9655C211.367 21.8327 210.718 21.6925 210.225 21.5302C209.724 21.3752 209.289 21.0875 208.921 20.6743C208.553 20.2611 208.361 19.6782 208.361 18.933C208.361 18.328 208.538 17.782 208.899 17.2876C209.26 16.7933 209.761 16.4096 210.402 16.1366C211.043 15.8636 211.75 15.7234 212.523 15.7234C213.717 15.7234 214.696 15.989 215.47 16.5129C216.243 17.0367 216.7 17.7524 216.848 18.66L214.21 19.2134C214.144 18.7559 213.967 18.4091 213.672 18.1804C213.378 17.9517 212.995 17.8336 212.523 17.8336C212.089 17.8336 211.735 17.9221 211.455 18.1066C211.175 18.2911 211.035 18.5272 211.035 18.8149C211.035 19.0658 211.124 19.265 211.308 19.4052C211.492 19.5528 211.72 19.6561 211.993 19.7298C212.265 19.8036 212.663 19.8848 213.172 19.9733C213.96 20.1061 214.608 20.2537 215.116 20.4234C215.625 20.5931 216.067 20.8883 216.435 21.3014C216.803 21.7146 216.988 22.3049 216.988 23.0649C216.988 23.6699 216.789 24.2159 216.391 24.6955C215.993 25.1825 215.448 25.5661 214.77 25.8465C214.085 26.1269 213.341 26.2671 212.531 26.2671C211.72 26.2671 210.954 26.149 210.328 25.9129C209.702 25.6768 209.186 25.3374 208.796 24.8873C208.405 24.4446 208.162 23.9208 208.066 23.3305L210.718 22.7771C210.785 23.2346 210.969 23.5814 211.271 23.8101L211.256 23.8248Z" fill="#FFFFFF"></path>
<path d="M217.371 15.9226H219.419V12.927L222.071 12.1006V15.9226H224.708V18.2689H222.071V22.3049C222.071 22.8066 222.188 23.1681 222.417 23.3969C222.645 23.6256 223.006 23.7437 223.507 23.7437H224.708V26.09H223.507C222.115 26.09 221.091 25.7653 220.42 25.116C219.75 24.4667 219.419 23.478 219.419 22.1499V18.2689H217.371V15.9226Z" fill="#FFFFFF"></path>
<path d="M226.145 18.3206C226.623 17.5238 227.272 16.8892 228.104 16.417C228.929 15.9522 229.85 15.7161 230.859 15.7161C231.868 15.7161 232.789 15.9522 233.614 16.417C234.439 16.8818 235.095 17.5164 235.574 18.3206C236.053 19.1249 236.289 20.0103 236.289 20.999C236.289 21.9877 236.053 22.8805 235.574 23.6847C235.095 24.4889 234.447 25.1235 233.614 25.5883C232.789 26.0458 231.868 26.2745 230.859 26.2745C229.85 26.2745 228.929 26.0458 228.104 25.5883C227.279 25.1309 226.623 24.4963 226.145 23.6847C225.666 22.8731 225.43 21.9803 225.43 20.999C225.43 20.0177 225.666 19.1249 226.145 18.3206ZM228.531 22.4378C228.767 22.8731 229.084 23.2125 229.482 23.4634C229.879 23.7142 230.336 23.8397 230.844 23.8397C231.353 23.8397 231.795 23.7142 232.2 23.4634C232.605 23.2125 232.929 22.8731 233.165 22.4378C233.401 22.0024 233.519 21.5228 233.519 20.999C233.519 20.4751 233.401 19.9955 233.165 19.5602C232.929 19.1249 232.613 18.7855 232.215 18.5346C231.817 18.2837 231.36 18.1583 230.852 18.1583C230.344 18.1583 229.902 18.2837 229.496 18.5346C229.091 18.7855 228.767 19.1249 228.531 19.5602C228.296 19.9955 228.178 20.4751 228.178 20.999C228.178 21.5228 228.296 22.0024 228.531 22.4378Z" fill="#FFFFFF"></path>
<path d="M237.813 15.9227H240.465V18.4608L240.031 17.9665C240.296 17.4279 240.642 16.9704 241.084 16.5867C241.526 16.203 242.02 15.9522 242.565 15.8194C243.117 15.6866 243.677 15.7087 244.252 15.8784V18.4018C243.559 18.1509 242.918 18.0771 242.336 18.1878C241.754 18.2985 241.298 18.542 240.959 18.933C240.62 19.3241 240.458 19.8111 240.458 20.394V26.0827H237.806V15.9227H237.813Z" fill="#FFFFFF"></path>
<path d="M246.756 19.9142H253.011L252.399 20.7627C252.37 20.2388 252.245 19.7666 252.009 19.346C251.773 18.9255 251.456 18.6008 251.059 18.3647C250.661 18.1286 250.204 18.0105 249.696 18.0105C249.187 18.0105 248.716 18.1434 248.303 18.4016C247.884 18.6672 247.559 19.0288 247.324 19.4862C247.088 19.9437 246.97 20.4528 246.97 20.9988C246.97 21.5448 247.088 22.076 247.331 22.5335C247.574 22.9909 247.92 23.3525 248.362 23.6034C248.804 23.8616 249.313 23.987 249.88 23.987C250.447 23.987 250.926 23.8616 251.361 23.6107C251.803 23.3599 252.142 23.0131 252.392 22.5704L254.573 23.5517C254.101 24.3781 253.453 25.0348 252.628 25.5291C251.803 26.0235 250.86 26.2669 249.799 26.2669C248.738 26.2669 247.869 26.0382 247.044 25.5808C246.219 25.1233 245.563 24.4888 245.084 23.6771C244.605 22.8655 244.37 21.9727 244.37 20.9914C244.37 20.0101 244.605 19.1173 245.069 18.3131C245.534 17.5162 246.174 16.8817 246.985 16.4094C247.795 15.9446 248.701 15.7085 249.696 15.7085C250.808 15.7085 251.803 15.9889 252.665 16.557C253.527 17.1251 254.167 17.8777 254.58 18.8295C254.992 19.7814 255.11 20.8143 254.926 21.9285H246.771V19.8994L246.756 19.9142Z" fill="#FFFFFF"></path>
</g>
<defs>
<clipPath id="clip0_4813_30390">
<rect width="255" height="32" fill="white"></rect>
</clipPath>
</defs>
</svg>